<svg width="135" height="45" viewBox="0 0 135 45" fill="none" xmlns="http://www.w3.org/2000/svg">
<path fill-rule="evenodd" clip-rule="evenodd" d="M94.1452 1.5735L89.8811 2.91405V23.3976V43.8815H94.267H98.6529V22.0222C98.6529 9.99959 98.5978 0.178966 98.5311 0.198148C98.4643 0.217331 96.4906 0.836529 94.1452 1.5735ZM62.8222 2.04057C62.6896 2.35731 58.7628 11.8509 54.0962 23.1375L45.6115 43.6585L50.2815 43.7869C52.8501 43.8579 55.1137 43.7575 55.3121 43.5639C55.5104 43.3707 58.1293 36.9891 61.1316 29.383C64.134 21.7768 66.7066 15.3792 66.8489 15.1655C66.9907 14.9523 69.3781 20.4729 72.1539 27.4335C74.9296 34.3946 77.55 40.9426 77.9773 41.9856L78.7531 43.8815H83.5864C86.2442 43.8815 88.4094 43.7307 88.3972 43.5469C88.385 43.3631 84.4806 33.8775 79.721 22.4683L71.0671 1.72428L67.0653 1.59447C64.1399 1.49989 62.9981 1.61989 62.8222 2.04057ZM19.0978 3.11302L15.3211 4.20464V18.0429C15.3211 33.2392 15.2178 33.8472 12.4132 35.1748C10.6297 36.0193 10.0761 36.0175 8.28565 35.1628L6.85438 34.4798L3.51526 37.5075L0.175659 40.5357L1.53528 41.5426C2.28283 42.0966 4.10054 42.9697 5.57468 43.4831C12.3704 45.8493 20.0647 42.7417 23.3102 36.3204C24.2844 34.3932 24.3438 33.4689 24.4812 18.1188C24.6469 -0.471463 25.2907 1.32279 19.0978 3.11302ZM43.7094 13.7514C38.8762 15.1334 34.4616 18.75 31.9952 23.3471C30.7082 25.7459 30.6673 26.0648 30.5138 34.8478L30.3564 43.8815H34.7778H39.1998L39.2076 35.9631C39.2154 28.5925 39.2914 27.9224 40.307 26.2812C41.7319 23.9779 44.9833 21.7398 47.4608 21.3566L49.4335 21.0515V17.0758V13.1L47.6061 13.1299C46.6012 13.1464 44.8473 13.4261 43.7094 13.7514ZM114.11 14.0052C109.221 15.133 105.59 17.8828 103.239 22.2372C101.514 25.4323 101.462 25.6727 101.661 29.47C101.903 34.0792 103.315 36.9673 106.733 39.8518C110.521 43.0482 112.35 43.6585 118.146 43.6585C122.737 43.6585 123.513 43.5376 125.699 42.4798C127.039 41.8316 128.562 40.8689 129.084 40.3408L130.032 39.3807L127.071 36.6706L124.111 33.961L122.641 34.9558C120.442 36.444 117.244 36.6251 114.516 35.4166C113.287 34.8719 112.058 34.0444 111.785 33.5778C111.304 32.7542 111.641 32.7288 123.06 32.7288H134.831L134.618 28.6023C134.37 23.7857 133.062 20.9203 129.78 18.005C125.819 14.4857 119.271 12.8141 114.11 14.0052ZM121.224 22.078C122.574 22.7146 124.481 24.2942 124.481 24.7765C124.481 24.979 121.614 25.145 118.11 25.145C112.343 25.145 111.754 25.0722 111.901 24.3763C112.325 22.3612 118.562 20.8235 121.224 22.078ZM60.7481 34.6547C62.1808 37.0248 66.7558 43.4185 67.0248 43.4265C67.3426 43.4363 73.7995 34.3571 73.7995 33.9007C73.7995 33.7468 70.7226 33.621 66.9615 33.621H60.1234L60.7481 34.6547Z" fill="white"/>
<path d="M66.7635 44.2736L74.1622 33.2547H59.3649L66.7635 44.2736Z" fill="url(#paint0_linear_29_287)"/>
<defs>
<linearGradient id="paint0_linear_29_287" x1="66.7635" y1="44.2736" x2="66.7635" y2="24.3019" gradientUnits="userSpaceOnUse">
<stop stop-color="#1503E1"/>
<stop offset="1" stop-color="#DB00FF" stop-opacity="0"/>
</linearGradient>
</defs>
</svg>
