<svg width="443" height="247" viewBox="0 0 443 247" fill="none" xmlns="http://www.w3.org/2000/svg">
<path d="M387 0H0V183C0 218.346 28.6538 247 64 247H443V56C443 25.0721 417.928 0 387 0Z" fill="#034C8C"/>
<path d="M63.056 95.112V165H43.984V95.112H63.056ZM53.584 67.72C56.4 67.72 58.832 68.4027 60.88 69.768C62.928 71.048 63.952 73.48 63.952 77.064C63.952 80.5627 62.928 82.9947 60.88 84.36C58.832 85.7253 56.4 86.408 53.584 86.408C50.6827 86.408 48.208 85.7253 46.16 84.36C44.1973 82.9947 43.216 80.5627 43.216 77.064C43.216 73.48 44.1973 71.048 46.16 69.768C48.208 68.4027 50.6827 67.72 53.584 67.72ZM125.224 93.832C132.733 93.832 138.749 95.88 143.272 99.976C147.795 103.987 150.056 110.472 150.056 119.432V165H130.984V124.168C130.984 119.133 130.088 115.379 128.296 112.904C126.504 110.344 123.645 109.064 119.72 109.064C113.917 109.064 109.949 111.069 107.816 115.08C105.683 119.005 104.616 124.68 104.616 132.104V165H85.544V95.112H100.136L102.696 104.072H103.72C105.256 101.683 107.133 99.7627 109.352 98.312C111.571 96.776 114.045 95.6667 116.776 94.984C119.507 94.216 122.323 93.832 125.224 93.832ZM191.301 111.24C191.301 113.885 191.173 116.531 190.917 119.176C190.746 121.736 190.533 124.339 190.277 126.984H190.533C191.386 125.789 192.24 124.595 193.093 123.4C194.032 122.205 194.97 121.011 195.909 119.816C196.848 118.621 197.829 117.469 198.853 116.36L218.437 95.112H239.941L212.165 125.448L241.605 165H219.589L199.493 136.712L191.301 143.24V165H172.229V67.72H191.301V111.24ZM318.292 95.112V165H303.7L301.14 156.04H300.116C298.665 158.429 296.788 160.392 294.484 161.928C292.265 163.379 289.791 164.445 287.06 165.128C284.329 165.896 281.513 166.28 278.612 166.28C273.663 166.28 269.311 165.384 265.556 163.592C261.801 161.8 258.9 159.027 256.852 155.272C254.804 151.517 253.78 146.653 253.78 140.68V95.112H272.852V135.944C272.852 140.893 273.748 144.648 275.54 147.208C277.332 149.768 280.191 151.048 284.116 151.048C288.041 151.048 291.071 150.152 293.204 148.36C295.423 146.568 296.959 143.965 297.812 140.552C298.751 137.139 299.22 132.957 299.22 128.008V95.112H318.292ZM398.321 165L391.665 143.24H358.385L351.729 165H330.865L363.121 73.224H386.801L419.185 165H398.321ZM380.401 105.736C379.974 104.285 379.42 102.451 378.737 100.232C378.054 98.0133 377.372 95.752 376.689 93.448C376.006 91.144 375.452 89.1387 375.025 87.432C374.598 89.1387 374.001 91.272 373.233 93.832C372.55 96.3067 371.868 98.696 371.185 101C370.588 103.219 370.118 104.797 369.777 105.736L363.249 126.984H387.057L380.401 105.736Z" fill="white"/>
</svg>
