<svg width="538" height="211" viewBox="0 0 538 211" fill="none" xmlns="http://www.w3.org/2000/svg">
<rect width="532" height="155" rx="12" fill="black"/>
<path d="M105.107 44.306L91.617 95H85.156L75.287 61.772C75.003 60.778 74.719 59.7603 74.435 58.719C74.151 57.6777 73.8907 56.6837 73.654 55.737C73.4173 54.7903 73.2043 53.9857 73.015 53.323C72.873 52.613 72.7783 52.0923 72.731 51.761C72.6837 52.0923 72.589 52.613 72.447 53.323C72.3523 53.9857 72.1867 54.7903 71.95 55.737C71.7133 56.6837 71.453 57.7013 71.169 58.79C70.9323 59.8313 70.6483 60.8963 70.317 61.985L60.732 95H54.271L40.852 44.306H47.526L55.407 75.262C55.691 76.3507 55.9513 77.4393 56.188 78.528C56.4247 79.5693 56.6377 80.6107 56.827 81.652C57.0637 82.646 57.253 83.6163 57.395 84.563C57.537 85.5097 57.679 86.4327 57.821 87.332C57.963 86.3853 58.105 85.415 58.247 84.421C58.4363 83.427 58.6493 82.4093 58.886 81.368C59.1227 80.2793 59.383 79.1907 59.667 78.102C59.951 77.0133 60.235 75.9483 60.519 74.907L69.465 44.306H76.068L85.369 75.12C85.7003 76.2087 86.008 77.321 86.292 78.457C86.576 79.5457 86.8363 80.6107 87.073 81.652C87.3097 82.6933 87.499 83.711 87.641 84.705C87.8303 85.6517 87.996 86.5273 88.138 87.332C88.28 86.1487 88.4693 84.918 88.706 83.64C88.9427 82.3147 89.2267 80.942 89.558 79.522C89.8893 78.102 90.2443 76.6583 90.623 75.191L98.433 44.306H105.107ZM144.064 95H115.735V44.306H144.064V49.915H122.125V65.748H142.786V71.286H122.125V89.391H144.064V95ZM172.014 44.306C176.227 44.306 179.682 44.8503 182.38 45.939C185.125 46.9803 187.161 48.566 188.486 50.696C189.811 52.826 190.474 55.5003 190.474 58.719C190.474 61.417 189.977 63.6653 188.983 65.464C187.989 67.2627 186.711 68.7063 185.149 69.795C183.634 70.8363 182.025 71.6647 180.321 72.28L194.237 95H186.782L174.499 74.055H164.417V95H158.027V44.306H172.014ZM171.659 49.844H164.417V68.659H172.014C174.759 68.659 177.008 68.304 178.759 67.594C180.51 66.8367 181.788 65.748 182.593 64.328C183.445 62.908 183.871 61.133 183.871 59.003C183.871 56.7783 183.421 55.0033 182.522 53.678C181.67 52.3527 180.345 51.3823 178.546 50.767C176.747 50.1517 174.452 49.844 171.659 49.844ZM219.518 44.306C223.731 44.306 227.257 44.7083 230.097 45.513C232.984 46.3177 235.138 47.643 236.558 49.489C238.025 51.335 238.759 53.7963 238.759 56.873C238.759 58.861 238.38 60.636 237.623 62.198C236.913 63.7127 235.824 64.9907 234.357 66.032C232.937 67.026 231.186 67.7123 229.103 68.091V68.446C231.233 68.7773 233.15 69.3927 234.854 70.292C236.605 71.1913 237.978 72.4693 238.972 74.126C239.966 75.7827 240.463 77.9363 240.463 80.587C240.463 83.6637 239.753 86.2907 238.333 88.468C236.913 90.598 234.878 92.231 232.227 93.367C229.624 94.4557 226.5 95 222.855 95H205.034V44.306H219.518ZM220.796 65.89C225.151 65.89 228.133 65.2037 229.742 63.831C231.351 62.411 232.156 60.3283 232.156 57.583C232.156 54.7903 231.162 52.8023 229.174 51.619C227.233 50.3883 224.109 49.773 219.802 49.773H211.424V65.89H220.796ZM211.424 71.215V89.604H221.648C226.145 89.604 229.269 88.7283 231.02 86.977C232.771 85.2257 233.647 82.93 233.647 80.09C233.647 78.2913 233.245 76.7293 232.44 75.404C231.683 74.0787 230.381 73.061 228.535 72.351C226.736 71.5937 224.275 71.215 221.151 71.215H211.424ZM292.605 77.108C292.605 80.6107 291.895 83.782 290.475 86.622C289.055 89.4147 286.877 91.6393 283.943 93.296C281.055 94.9053 277.363 95.71 272.867 95.71C266.571 95.71 261.767 94.006 258.454 90.598C255.188 87.1427 253.555 82.5987 253.555 76.966V44.306H259.945V77.179C259.945 81.297 261.033 84.492 263.211 86.764C265.435 89.036 268.772 90.172 273.222 90.172C276.298 90.172 278.783 89.6277 280.677 88.539C282.617 87.403 284.037 85.8647 284.937 83.924C285.836 81.936 286.286 79.664 286.286 77.108V44.306H292.605V77.108ZM349.01 95H341.555L314.433 52.897H314.149C314.197 53.749 314.244 54.6957 314.291 55.737C314.386 56.7783 314.457 57.9143 314.504 59.145C314.552 60.3283 314.599 61.559 314.646 62.837C314.694 64.115 314.717 65.393 314.717 66.671V95H308.824V44.306H316.208L343.259 86.267H343.543C343.496 85.699 343.449 84.918 343.401 83.924C343.354 82.8827 343.307 81.7467 343.259 80.516C343.212 79.238 343.165 77.9363 343.117 76.611C343.07 75.2857 343.046 74.055 343.046 72.919V44.306H349.01V95ZM387.618 68.233H405.155V93.083C402.409 93.9823 399.64 94.645 396.848 95.071C394.055 95.497 390.884 95.71 387.334 95.71C382.08 95.71 377.654 94.6687 374.057 92.586C370.459 90.456 367.714 87.4503 365.821 83.569C363.975 79.6403 363.052 75.0017 363.052 69.653C363.052 64.3517 364.093 59.7603 366.176 55.879C368.258 51.9977 371.24 48.992 375.122 46.862C379.05 44.6847 383.784 43.596 389.322 43.596C392.162 43.596 394.836 43.8563 397.345 44.377C399.901 44.8977 402.267 45.6313 404.445 46.578L402.031 52.116C400.232 51.3113 398.197 50.625 395.925 50.057C393.7 49.489 391.381 49.205 388.967 49.205C384.943 49.205 381.488 50.0333 378.601 51.69C375.713 53.3467 373.512 55.7133 371.998 58.79C370.483 61.8193 369.726 65.4403 369.726 69.653C369.726 73.6763 370.365 77.25 371.643 80.374C372.968 83.4507 375.027 85.8647 377.82 87.616C380.612 89.32 384.281 90.172 388.825 90.172C390.339 90.172 391.665 90.1247 392.801 90.03C393.984 89.888 395.049 89.7223 395.996 89.533C396.99 89.3437 397.913 89.1543 398.765 88.965V73.913H387.618V68.233ZM441.119 52.542C439.084 52.542 437.261 52.9443 435.652 53.749C434.09 54.5537 432.765 55.7133 431.676 57.228C430.587 58.6953 429.759 60.494 429.191 62.624C428.67 64.754 428.41 67.1443 428.41 69.795C428.41 73.3923 428.836 76.469 429.688 79.025C430.587 81.5337 431.984 83.4507 433.877 84.776C435.77 86.1013 438.184 86.764 441.119 86.764C443.202 86.764 445.261 86.5273 447.296 86.054C449.379 85.5807 451.627 84.918 454.041 84.066V93.083C451.816 93.9823 449.615 94.645 447.438 95.071C445.261 95.497 442.823 95.71 440.125 95.71C434.918 95.71 430.611 94.645 427.203 92.515C423.842 90.3377 421.357 87.3083 419.748 83.427C418.139 79.4983 417.334 74.9307 417.334 69.724C417.334 65.89 417.855 62.3873 418.896 59.216C419.937 55.9973 421.452 53.2283 423.44 50.909C425.475 48.5897 427.96 46.791 430.895 45.513C433.877 44.235 437.285 43.596 441.119 43.596C443.628 43.596 446.136 43.9273 448.645 44.59C451.201 45.2053 453.639 46.0573 455.958 47.146L452.479 55.879C450.586 54.9797 448.669 54.1987 446.728 53.536C444.835 52.8733 442.965 52.542 441.119 52.542ZM512.274 69.582C512.274 73.5107 511.777 77.0843 510.783 80.303C509.837 83.4743 508.369 86.2197 506.381 88.539C504.441 90.8583 501.932 92.6333 498.855 93.864C495.826 95.0947 492.252 95.71 488.134 95.71C484.016 95.71 480.419 95.0947 477.342 93.864C474.313 92.586 471.804 90.811 469.816 88.539C467.876 86.2197 466.408 83.4507 465.414 80.232C464.468 77.0133 463.994 73.4397 463.994 69.511C463.994 64.257 464.846 59.6893 466.55 55.808C468.302 51.9267 470.952 48.921 474.502 46.791C478.1 44.6137 482.667 43.525 488.205 43.525C493.696 43.525 498.216 44.6137 501.766 46.791C505.316 48.921 507.943 51.9503 509.647 55.879C511.399 59.7603 512.274 64.328 512.274 69.582ZM475.283 69.582C475.283 73.132 475.733 76.185 476.632 78.741C477.532 81.297 478.928 83.2613 480.821 84.634C482.715 86.0067 485.152 86.693 488.134 86.693C491.211 86.693 493.672 86.0067 495.518 84.634C497.412 83.2613 498.784 81.297 499.636 78.741C500.536 76.185 500.985 73.132 500.985 69.582C500.985 64.2333 499.991 60.0443 498.003 57.015C496.015 53.9857 492.749 52.471 488.205 52.471C485.176 52.471 482.715 53.1573 480.821 54.53C478.928 55.9027 477.532 57.867 476.632 60.423C475.733 62.979 475.283 66.032 475.283 69.582Z" fill="white"/>
<line x1="117" y1="27.5" x2="143.639" y2="27.5" stroke="white" stroke-width="3"/>
</svg>
